<?xml version="1.0" encoding="UTF-8"?>
<!-- Generator: Adobe Illustrator 25.2.1, SVG Export Plug-In . SVG Version: 6.00 Build 0)  -->
<svg version="1.1" id="Layer_1" xmlns="http://www.w3.org/2000/svg" xmlns:xlink="http://www.w3.org/1999/xlink" x="0px" y="0px" viewBox="0 0 600 600" style="enable-background:new 0 0 600 600;" xml:space="preserve">
<style type="text/css">
	.st0{fill:url(#SVGID_1_);}
	.st1{fill:#F3F3F3;}
	.st2{fill:#DF0007;}
</style>
<g>
	<g>
		<g>
			<linearGradient id="SVGID_1_" gradientUnits="userSpaceOnUse" x1="19.4013" y1="299.8912" x2="581.2031" y2="299.8912">
				<stop offset="2.851261e-02" style="stop-color:#00FFFD"/>
				<stop offset="5.130716e-02" style="stop-color:#00F9FD"/>
				<stop offset="0.221" style="stop-color:#00CEFD"/>
				<stop offset="0.3857" style="stop-color:#01ADFD"/>
				<stop offset="0.5421" style="stop-color:#0194FD"/>
				<stop offset="0.6867" style="stop-color:#0186FD"/>
				<stop offset="0.8081" style="stop-color:#0181FD"/>
			</linearGradient>
			<path class="st0" d="M359.5,573.6c54.1-31.8,102.7-77.9,123-138.5c8.3-23.9,14.3-53,10.6-79c-0.1,0.8-0.2,1.5-0.3,2.2     c-21,125-143.7,203.6-265.8,182.6C127.3,522.7,46,450.8,21.1,355.6c-3.5-17.1-1.5-19,4-9.5c33.2,66.9,98.8,128.1,174.3,137     C127.2,456.1,72,388,59.3,307.8C43.3,213.2,84,122.3,159.9,63.4c37-28.4,78.9-45.2,123.8-44.4c-67.2,28.6-130.5,73.7-156.6,144.1     c-7.1,19-13.1,39-14.7,59c0.6-2.6,1.3-5.2,2-7.8C144.2,106.8,253.3,44.9,360.8,57.2C472.1,69.5,573,157.9,581.2,271.1     c-26.6-61.4-68.8-118.8-131.4-145.9c-35-15.6-76.3-24.9-113.5-15.3c63.5,1.6,125,35,164.7,89.9c43.2,59.4,53.2,129.6,34.9,199     c-23.1,85-88.2,155.5-172.5,180.4C348.1,582.6,348.1,580.2,359.5,573.6z"/>
		</g>
	</g>
	<g>
		<g>
			<path class="st1" d="M455.5,176.5c-45-39.7-104.7-56.5-159.9-45.6c30.3-15.5,67.8-15.5,101.1-8.9c59.4,11.2,107,52.6,142,100.5     C509.5,126.2,405,69.5,306.4,80.6C211.2,90.9,129,165.7,124.1,264.4c-0.1,2.4-0.2,4.8-0.2,7.2c-2.5-17.6-1.3-36.1,1.2-53.9     c8.8-65.9,54.7-117.3,107.3-155.1c-39,8.1-71.9,30.7-98.3,62.5C79.9,190.8,62.5,277.3,94.7,356c26.6,66.8,87.6,114.9,155.3,124.2     c-67,7-135.7-33.1-177.4-84.4c-6.6-7.1-7.9-5.1-1.6,9c40,77.4,124.3,123.7,214,120c109.6-5.6,200.4-97.5,194.1-209.6     c0-0.7-0.1-1.3-0.1-2c8.3,21.8,8.7,48.1,6.2,70.4c-5.7,56.3-38.7,105.6-79.3,143.7c-8.5,8-8,10,4.6,4.1     c68-38,110.5-111.6,113.9-189.6C526.8,278.1,504.4,219.4,455.5,176.5z M307.6,423.9l-37.1-89.7l-24.8,30.7v58.9h-51.2V179.5     l51.2-25.5v142.1l51.5-66.5h60.2l-49.9,61.8l55.8,132.5H307.6z M427.4,405.4c-1.5,3.7-3.6,6.8-6.3,9.5c-2.7,2.6-5.8,4.7-9.5,6.2     c-3.6,1.5-7.6,2.3-11.8,2.3s-8.2-0.8-11.8-2.3c-3.6-1.5-6.8-3.6-9.4-6.2c-2.6-2.6-4.7-5.8-6.2-9.5c-1.5-3.7-2.3-7.6-2.3-11.9     c0-4.3,0.8-8.2,2.3-11.8c1.5-3.6,3.6-6.8,6.2-9.4c2.6-2.6,5.8-4.7,9.4-6.1c3.6-1.5,7.6-2.2,11.8-2.2s8.2,0.7,11.8,2.2     c3.6,1.5,6.8,3.5,9.5,6.1c2.7,2.6,4.8,5.8,6.3,9.4c1.5,3.6,2.3,7.6,2.3,11.8C429.7,397.7,429,401.7,427.4,405.4z"/>
		</g>
	</g>
	<path class="st2" d="M429.3,393.5c0,4.2-0.8,8.2-2.3,11.9c-1.5,3.7-3.6,6.8-6.3,9.5c-2.7,2.6-5.8,4.7-9.5,6.2   c-3.6,1.5-7.6,2.3-11.8,2.3s-8.2-0.8-11.8-2.3c-3.6-1.5-6.8-3.6-9.4-6.2c-2.6-2.6-4.7-5.8-6.2-9.5c-1.5-3.7-2.3-7.6-2.3-11.9   c0-4.3,0.8-8.2,2.3-11.8c1.5-3.6,3.6-6.8,6.2-9.4c2.6-2.6,5.8-4.7,9.4-6.1c3.6-1.5,7.6-2.2,11.8-2.2s8.2,0.7,11.8,2.2   c3.6,1.5,6.8,3.5,9.5,6.1c2.7,2.6,4.8,5.8,6.3,9.4C428.5,385.3,429.3,389.2,429.3,393.5z"/>
	<polygon class="st2" points="363.1,423.9 307.3,423.9 270.2,334.2 245.5,364.9 245.5,423.9 194.3,423.9 194.3,179.5 245.5,154    245.5,296.1 297,229.5 357.2,229.5 307.3,291.4  "/>
</g>
</svg>